<svg width="221" height="30" viewBox="0 0 221 30" fill="none" xmlns="http://www.w3.org/2000/svg">
<path d="M198.374 1.03467L198.378 1.18529L198.397 0.885716L198.374 1.03467ZM197.434 1.10829L197.415 0.958825L197.413 0.959129L197.434 1.10829ZM197.339 1.12197L197.36 1.27119L197.36 1.27113L197.339 1.12197ZM196.931 1.18725L196.959 1.33546L196.959 1.33542L196.931 1.18725ZM196.802 1.21294L196.832 1.36057L196.832 1.36055L196.802 1.21294ZM196.759 1.22165L196.789 1.36932L196.789 1.36929L196.759 1.22165ZM196.41 1.29984L196.445 1.44627L196.446 1.44613L196.41 1.29984ZM196.232 1.34479L196.193 1.1991L196.193 1.19928L196.232 1.34479ZM195.883 1.44683L195.928 1.59056L195.928 1.59053L195.883 1.44683ZM195.823 1.46507L195.867 1.60927V1.60927L195.823 1.46507ZM195.729 1.49452L195.682 1.35153L195.681 1.35168L195.729 1.49452ZM195.249 1.67083L195.306 1.81039L195.306 1.81038L195.249 1.67083ZM193.392 2.75329L193.48 2.87613V2.87613L193.392 2.75329ZM193.372 2.76776L193.459 2.89071L193.459 2.8906L193.372 2.76776ZM192.585 3.46282L192.479 3.35524L192.479 3.35531L192.585 3.46282ZM192.035 4.06054L191.919 3.96376L191.919 3.96405L192.035 4.06054ZM191.934 4.18981L191.814 4.09912L191.814 4.09915L191.934 4.18981ZM191.873 4.2693L191.992 4.36243L191.992 4.36221L191.873 4.2693ZM191.551 4.70009L191.427 4.61467L191.427 4.61516L191.551 4.70009ZM191.422 4.90095L191.294 4.82066V4.82066L191.422 4.90095ZM191.384 4.96006L191.257 4.87939L191.257 4.87957L191.384 4.96006ZM191.134 5.37718L191.002 5.30365L191.002 5.30395L191.134 5.37718ZM190.983 5.66216L191.117 5.73055L191.117 5.73053L190.983 5.66216ZM190.779 6.09022L190.916 6.15153L190.917 6.15114L190.779 6.09022ZM190.652 6.38654L190.512 6.32988L190.512 6.33013L190.652 6.38654ZM190.486 6.83767L190.628 6.88713L190.628 6.88673L190.486 6.83767ZM190.468 6.88741L190.611 6.93689V6.93688L190.468 6.88741ZM190.386 7.13281L190.242 7.08845L190.242 7.08855L190.386 7.13281ZM190.25 7.63202L190.396 7.66908L190.397 7.66855L190.25 7.63202ZM190.227 7.72263L190.081 7.68397V7.68397L190.227 7.72263ZM190.183 7.89746L190.036 7.86482L190.036 7.86498L190.183 7.89746ZM190.056 8.58588L190.204 8.61224L190.205 8.60847L190.056 8.58588ZM190.039 8.67735L189.891 8.65098L189.89 8.65623L190.039 8.67735ZM191.441 16.0994L191.309 16.172V16.172L191.441 16.0994ZM193.32 18.8961L193.438 18.8014L193.437 18.8012L193.32 18.8961ZM193.584 19.2194L193.701 19.1238L193.7 19.1237L193.584 19.2194ZM193.608 19.2482L193.491 19.3437L193.491 19.3438L193.608 19.2482ZM193.673 19.3273L193.789 19.2317L193.789 19.2309L193.673 19.3273ZM193.924 19.6338L194.041 19.5389L194.041 19.5385L193.924 19.6338ZM197.434 23.2424L197.334 23.3549L197.337 23.3571L197.434 23.2424ZM199.044 24.6138L198.946 24.7285L198.949 24.7305L199.044 24.6138ZM200.486 25.7513L200.394 25.8711L200.395 25.8713L200.486 25.7513ZM200.829 26.0094L200.739 26.1302L200.739 26.1302L200.829 26.0094ZM200.909 26.0688L200.819 26.1896L200.819 26.1899L200.909 26.0688ZM201.287 26.3463L201.376 26.2245L201.376 26.2244L201.287 26.3463ZM201.684 26.6326L201.596 26.7551V26.7551L201.684 26.6326ZM201.709 26.6501L201.621 26.7726L201.621 26.7729L201.709 26.6501ZM201.8 26.7154L201.888 26.5928L201.888 26.5926L201.8 26.7154ZM202.226 27.0164L202.312 26.893L202.312 26.8929L202.226 27.0164ZM202.309 27.0746L202.222 27.198L202.222 27.198L202.309 27.0746ZM202.693 27.342L202.607 27.4659L202.608 27.4661L202.693 27.342ZM202.783 27.4038L202.868 27.2798L202.868 27.2797L202.783 27.4038ZM203.213 27.6981L203.129 27.8227L203.129 27.8228L203.213 27.6981ZM203.248 27.7213L203.332 27.5963L203.332 27.5963L203.248 27.7213ZM203.323 27.7724L203.238 27.8967L203.239 27.8972L203.323 27.7724ZM203.709 28.0308L203.792 27.9054L203.792 27.9053L203.709 28.0308ZM204.179 28.3404L204.097 28.4668L204.097 28.4669L204.179 28.3404ZM205.173 28.9624L205.097 29.0921L205.097 29.0921L205.173 28.9624ZM205.175 28.9636L205.252 28.834L205.252 28.8339L205.175 28.9636ZM205.372 29.0547L205.405 29.2017L205.383 28.9044L205.372 29.0547ZM205.462 29.0332L205.396 28.8978L205.499 29.1791L205.462 29.0332ZM206.997 28.072L207.111 28.1698L206.914 27.946L206.997 28.072ZM205.978 28.7103L206.054 28.8402L206.054 28.8402L205.978 28.7103ZM205.616 28.9379L205.533 28.8123V28.8123L205.616 28.9379ZM4.0137 0.849315C2.26606 0.849315 0.849315 2.26606 0.849315 4.0137H1.15068C1.15068 2.4325 2.4325 1.15068 4.0137 1.15068V0.849315ZM197.917 0.849315H4.0137V1.15068H197.917V0.849315ZM198.397 0.885716C198.24 0.861703 198.08 0.849315 197.917 0.849315V1.15068C198.064 1.15068 198.209 1.1619 198.351 1.18362L198.397 0.885716ZM198.37 0.884044C198.051 0.893074 197.731 0.918002 197.415 0.95884L197.454 1.25773C197.76 1.21819 198.069 1.19404 198.378 1.18529L198.37 0.884044ZM197.413 0.959129L197.318 0.972811L197.36 1.27113L197.456 1.25744L197.413 0.959129ZM197.318 0.972744C197.18 0.992098 197.042 1.01355 196.904 1.03909L196.959 1.33542C197.091 1.31092 197.225 1.29015 197.36 1.27119L197.318 0.972744ZM196.904 1.03905C196.859 1.04733 196.815 1.05649 196.771 1.06533L196.832 1.36055C196.876 1.3516 196.917 1.34308 196.959 1.33546L196.904 1.03905ZM196.772 1.06531L196.729 1.07402L196.789 1.36929L196.832 1.36057L196.772 1.06531ZM196.729 1.07398C196.61 1.09819 196.492 1.12444 196.374 1.15355L196.446 1.44613C196.559 1.41816 196.673 1.39282 196.789 1.36932L196.729 1.07398ZM196.374 1.1534C196.314 1.16805 196.254 1.18315 196.193 1.1991L196.27 1.49049C196.328 1.47517 196.387 1.46056 196.445 1.44627L196.374 1.1534ZM196.193 1.19928C196.073 1.23153 195.955 1.26615 195.837 1.30312L195.928 1.59053C196.041 1.55479 196.155 1.52139 196.271 1.49031L196.193 1.19928ZM195.838 1.30309C195.819 1.30901 195.8 1.31481 195.78 1.32087L195.867 1.60927C195.887 1.60328 195.908 1.59703 195.928 1.59056L195.838 1.30309ZM195.78 1.32087C195.748 1.33033 195.715 1.34048 195.682 1.35153L195.777 1.63751C195.806 1.62793 195.835 1.61893 195.867 1.60927L195.78 1.32087ZM195.681 1.35168C195.516 1.40706 195.353 1.46601 195.192 1.53128L195.306 1.81038C195.459 1.7482 195.616 1.69144 195.777 1.63736L195.681 1.35168ZM195.192 1.53126C194.394 1.85615 193.905 2.20442 193.305 2.63044L193.48 2.87613C194.078 2.45102 194.543 2.12099 195.306 1.81039L195.192 1.53126ZM193.305 2.63044L193.285 2.64491L193.459 2.8906L193.48 2.87613L193.305 2.63044ZM193.285 2.6448C192.993 2.85156 192.709 3.13012 192.479 3.35524L192.69 3.5704C192.923 3.34205 193.19 3.08114 193.459 2.89071L193.285 2.6448ZM192.479 3.35531C192.28 3.55078 192.095 3.75461 191.919 3.96376L192.15 4.15733C192.32 3.95445 192.499 3.75797 192.69 3.57034L192.479 3.35531ZM191.919 3.96405C191.881 4.00957 191.846 4.0561 191.814 4.09912L192.054 4.2805C192.087 4.23651 192.118 4.19592 192.151 4.15704L191.919 3.96405ZM191.814 4.09915C191.793 4.12592 191.774 4.15141 191.755 4.17639L191.992 4.36221C192.014 4.33465 192.034 4.30694 192.054 4.28047L191.814 4.09915ZM191.755 4.17617C191.643 4.31822 191.531 4.46359 191.427 4.61467L191.676 4.78552C191.774 4.64263 191.881 4.5034 191.992 4.36243L191.755 4.17617ZM191.427 4.61516C191.38 4.68381 191.336 4.75354 191.294 4.82066L191.549 4.98124C191.592 4.91334 191.633 4.84832 191.676 4.78502L191.427 4.61516ZM191.294 4.82066C191.282 4.84043 191.269 4.85993 191.257 4.87939L191.511 5.04073C191.524 5.0208 191.537 5.00088 191.549 4.98124L191.294 4.82066ZM191.257 4.87957C191.17 5.01777 191.083 5.15874 191.002 5.30365L191.265 5.4507C191.342 5.31259 191.426 5.17678 191.512 5.04055L191.257 4.87957ZM191.002 5.30395C190.948 5.40045 190.898 5.49727 190.849 5.59379L191.117 5.73053C191.166 5.63549 191.214 5.54232 191.265 5.4504L191.002 5.30395ZM190.849 5.59377C190.776 5.73701 190.706 5.88181 190.641 6.0293L190.917 6.15114C190.979 6.00935 191.046 5.86956 191.117 5.73055L190.849 5.59377ZM190.641 6.02891C190.597 6.12796 190.554 6.22812 190.512 6.32988L190.792 6.4432C190.831 6.3456 190.873 6.24873 190.916 6.15153L190.641 6.02891ZM190.512 6.33013C190.451 6.48211 190.396 6.63535 190.343 6.7886L190.628 6.88673C190.68 6.73585 190.733 6.58808 190.792 6.44295L190.512 6.33013ZM190.343 6.7882L190.326 6.83795L190.611 6.93688L190.628 6.88713L190.343 6.7882ZM190.326 6.83793C190.298 6.91888 190.269 7.00263 190.242 7.08845L190.53 7.17718C190.555 7.09736 190.582 7.0187 190.611 6.93689L190.326 6.83793ZM190.242 7.08855C190.19 7.2571 190.146 7.42719 190.104 7.5955L190.397 7.66855C190.438 7.50145 190.481 7.33769 190.53 7.17708L190.242 7.08855ZM190.104 7.59497C190.097 7.62429 190.089 7.65363 190.081 7.68397L190.372 7.76128C190.38 7.73126 190.388 7.70028 190.396 7.66908L190.104 7.59497ZM190.081 7.68397C190.066 7.74141 190.05 7.80242 190.036 7.86482L190.33 7.9301C190.342 7.87477 190.357 7.81975 190.372 7.76128L190.081 7.68397ZM190.036 7.86498C189.985 8.09612 189.942 8.3293 189.907 8.56329L190.205 8.60847C190.239 8.38038 190.281 8.15384 190.33 7.92994L190.036 7.86498ZM189.907 8.55952L189.891 8.651L190.188 8.70371L190.204 8.61223L189.907 8.55952ZM189.89 8.65623C189.53 11.1979 190.07 13.9179 191.309 16.172L191.573 16.0269C190.364 13.8268 189.838 11.1723 190.189 8.69848L189.89 8.65623ZM191.309 16.172C192.016 17.4576 192.458 18.071 193.203 18.991L193.437 18.8012C192.701 17.8933 192.27 17.2948 191.573 16.0268L191.309 16.172ZM193.203 18.9908C193.294 19.1034 193.379 19.2077 193.468 19.3151L193.7 19.1237C193.613 19.0169 193.528 18.9132 193.438 18.8014L193.203 18.9908ZM193.468 19.315L193.491 19.3437L193.724 19.1526L193.701 19.1238L193.468 19.315ZM193.491 19.3438C193.513 19.37 193.535 19.3973 193.557 19.4237L193.789 19.2309C193.767 19.2054 193.746 19.1788 193.724 19.1526L193.491 19.3438ZM193.556 19.4229C193.637 19.5213 193.72 19.6218 193.808 19.7291L194.041 19.5385C193.953 19.4308 193.87 19.3296 193.789 19.2317L193.556 19.4229ZM193.807 19.7287C194.826 20.9851 196.054 22.2134 197.334 23.3549L197.535 23.1299C196.262 21.9955 195.047 20.7789 194.041 19.5389L193.807 19.7287ZM197.337 23.3571L198.947 24.7285L199.142 24.4991L197.532 23.1277L197.337 23.3571ZM198.949 24.7305C199.435 25.1272 199.92 25.5082 200.394 25.8711L200.577 25.6316C200.105 25.2705 199.623 24.8915 199.139 24.497L198.949 24.7305ZM200.395 25.8713C200.502 25.9526 200.618 26.04 200.739 26.1302L200.919 25.8885C200.799 25.7989 200.683 25.712 200.577 25.6313L200.395 25.8713ZM200.739 26.1302L200.819 26.1896L200.999 25.9479L200.919 25.8885L200.739 26.1302ZM200.819 26.1899C200.94 26.2796 201.066 26.3721 201.198 26.4682L201.376 26.2244C201.244 26.129 201.119 26.037 200.998 25.9476L200.819 26.1899ZM201.198 26.4682C201.358 26.5842 201.478 26.67 201.596 26.7551L201.772 26.5101C201.653 26.425 201.534 26.3398 201.376 26.2245L201.198 26.4682ZM201.596 26.7551L201.621 26.7726L201.796 26.5276L201.772 26.5101L201.596 26.7551ZM201.621 26.7729L201.713 26.8381L201.888 26.5926L201.796 26.5273L201.621 26.7729ZM201.713 26.8379C201.853 26.9379 201.995 27.0387 202.139 27.1398L202.312 26.8929C202.169 26.7924 202.027 26.6922 201.888 26.5928L201.713 26.8379ZM202.139 27.1398L202.222 27.198L202.395 26.9512L202.312 26.893L202.139 27.1398ZM202.222 27.198C202.35 27.2874 202.479 27.3768 202.607 27.4659L202.779 27.2182C202.65 27.129 202.522 27.0401 202.395 26.9512L202.222 27.198ZM202.608 27.4661L202.697 27.5278L202.868 27.2797L202.779 27.218L202.608 27.4661ZM202.697 27.5278C202.841 27.6274 202.986 27.7255 203.129 27.8227L203.298 27.5736C203.155 27.4761 203.012 27.3787 202.868 27.2798L202.697 27.5278ZM203.129 27.8228C203.14 27.8307 203.152 27.8386 203.164 27.8463L203.332 27.5963C203.321 27.5887 203.309 27.5811 203.298 27.5735L203.129 27.8228ZM203.163 27.8463C203.189 27.8635 203.214 27.8799 203.238 27.8967L203.408 27.6481C203.383 27.6305 203.357 27.6131 203.332 27.5963L203.163 27.8463ZM203.239 27.8972C203.369 27.9854 203.498 28.0717 203.625 28.1564L203.792 27.9053C203.665 27.8211 203.537 27.7353 203.408 27.6476L203.239 27.8972ZM203.625 28.1563C203.825 28.2895 203.962 28.3793 204.097 28.4668L204.261 28.214C204.127 28.1272 203.991 28.038 203.792 27.9054L203.625 28.1563ZM204.097 28.4669C204.497 28.7254 204.821 28.9288 205.097 29.0921L205.25 28.8327C204.979 28.6723 204.659 28.4715 204.261 28.214L204.097 28.4669ZM205.097 29.0921L205.099 29.0933L205.252 28.8339L205.25 28.8327L205.097 29.0921ZM205.099 29.0933C205.144 29.1203 205.187 29.1458 205.225 29.1643C205.263 29.1832 205.309 29.2012 205.361 29.205L205.383 28.9044C205.386 28.9046 205.381 28.9053 205.358 28.8937C205.333 28.8817 205.302 28.8634 205.252 28.834L205.099 29.0933ZM204.705 29.2785C204.947 29.2785 205.181 29.252 205.405 29.2017L205.339 28.9077C205.137 28.953 204.925 28.9772 204.705 28.9772V29.2785ZM4.0137 29.2785H204.705V28.9772H4.0137V29.2785ZM0.849315 26.1142C0.849315 27.8618 2.26606 29.2785 4.0137 29.2785V28.9772C2.4325 28.9772 1.15068 27.6954 1.15068 26.1142H0.849315ZM0.849315 4.0137V26.1142H1.15068V4.0137H0.849315ZM205.499 29.1791C206.144 29.0136 206.7 28.6517 207.111 28.1698L206.882 27.9742C206.509 28.4108 206.007 28.7378 205.424 28.8872L205.499 29.1791ZM206.054 28.8402C206.36 28.6609 206.71 28.4399 207.079 28.198L206.914 27.946C206.547 28.1863 206.202 28.4044 205.902 28.5803L206.054 28.8402ZM205.699 29.0634C205.782 29.0086 205.893 28.935 206.054 28.8402L205.902 28.5803C205.733 28.6794 205.616 28.7567 205.533 28.8123L205.699 29.0634ZM205.528 29.1686C205.578 29.1442 205.635 29.1057 205.699 29.0634L205.533 28.8123C205.461 28.8596 205.424 28.8842 205.396 28.8978L205.528 29.1686Z" fill="#CA030F"/>
<path fill-rule="evenodd" clip-rule="evenodd" d="M197.059 22.4547C196.208 21.6705 195.386 20.8392 194.58 19.9063L193.866 19.017C192.32 17.0581 190.873 14.1946 190.671 11.4377C190.602 10.4908 190.647 9.51487 190.822 8.61302C190.846 8.48839 190.873 8.36571 190.903 8.24421C190.916 8.18855 190.928 8.13251 190.942 8.07803C190.988 7.90518 191.038 7.73508 191.094 7.57086C191.289 7.00529 191.496 6.53653 191.762 6.07679C192.06 5.56218 192.283 5.25019 192.634 4.80769C192.715 4.70657 192.799 4.65405 192.88 4.55646C193.43 3.89095 194.24 3.34968 194.976 2.95187C195.131 2.86799 195.298 2.79274 195.471 2.7218C195.517 2.70298 195.565 2.68456 195.612 2.66614C195.762 2.60931 195.916 2.55601 196.074 2.50819L196.163 2.47997C196.349 2.42667 196.54 2.38081 196.733 2.34044C196.783 2.32986 196.833 2.32084 196.883 2.31144C197.041 2.28126 197.201 2.25539 197.361 2.23423C197.739 2.18367 198.119 2.15466 198.485 2.15466C198.704 2.15466 198.916 2.16446 199.123 2.17975C199.206 2.18563 199.285 2.19621 199.367 2.20483C199.494 2.21816 199.621 2.23187 199.745 2.25108C199.829 2.26401 199.911 2.28047 199.993 2.29654C200.107 2.3181 200.221 2.34123 200.331 2.36788C200.412 2.38787 200.492 2.40981 200.572 2.43255C200.678 2.46273 200.782 2.49487 200.884 2.52975C200.961 2.55562 201.036 2.58266 201.111 2.61127C201.212 2.65007 201.31 2.69201 201.408 2.73512C201.478 2.76648 201.548 2.79783 201.617 2.83115C201.715 2.87975 201.81 2.93188 201.905 2.98479C201.967 3.01967 202.03 3.05299 202.091 3.08983C202.193 3.15215 202.292 3.21917 202.39 3.28658C202.438 3.3199 202.489 3.35125 202.537 3.38613C202.68 3.49117 202.82 3.60092 202.956 3.71771C203.101 3.84313 203.198 3.94935 203.338 4.0783C203.478 4.20607 203.597 4.32992 203.716 4.48199C204.231 5.14515 204.517 5.54611 204.925 6.34801L205.327 7.12875C205.384 7.24947 205.404 7.3114 205.492 7.38743C205.618 6.97551 206.226 5.78636 206.493 5.3713C207.881 3.21329 209.67 2.18719 212.402 2.18719C213.983 2.18719 215.635 2.6877 216.851 3.6307L217.657 4.30876L218.366 5.1283C218.768 5.61587 219.218 6.47226 219.468 7.07545C219.527 7.21811 219.581 7.36352 219.631 7.5105C219.648 7.55871 219.662 7.60809 219.677 7.65669C219.709 7.75664 219.74 7.85698 219.768 7.95849C219.784 8.01728 219.799 8.07646 219.814 8.13603C219.837 8.22932 219.859 8.32338 219.879 8.41823C219.892 8.48094 219.906 8.54365 219.918 8.60675C220.326 10.7518 219.95 13.1575 219.124 15.0585C218.833 15.7267 218.6 16.2245 218.256 16.8132C218.09 17.0985 217.943 17.3391 217.762 17.6049L216.952 18.7587C216.848 18.892 216.763 18.9837 216.669 19.1174C216.495 19.3647 216.272 19.6285 216.086 19.8511C215.758 20.2438 214.853 21.2534 214.537 21.5341L213.556 22.5018C212.88 23.2496 210.124 25.4934 209.34 26.0609C208.584 26.6081 207.867 27.1595 207.077 27.6738L205.528 28.6963C205.504 28.7093 205.477 28.7152 205.447 28.7152C205.252 28.7152 204.939 28.4627 204.713 28.3189C204.548 28.2143 204.392 28.1127 204.24 28.0128C204.032 27.8756 203.834 27.7424 203.642 27.6107L203.57 27.5617C203.379 27.4292 203.192 27.2983 203.007 27.1666C202.967 27.1388 202.928 27.1106 202.888 27.0827C202.698 26.9479 202.508 26.8123 202.313 26.6728C202.107 26.5258 201.897 26.3761 201.673 26.2193C201.156 25.836 200.673 25.4476 200.198 25.0866C199.952 24.8953 199.716 24.7048 199.477 24.5136L199.483 21.6948C199.77 21.7735 201.136 22.6323 201.37 22.7271L201.36 19.9228C201.047 19.7037 200.701 19.4905 200.406 19.311C200.085 19.1158 199.817 18.9136 199.482 18.7129C199.46 18.2966 199.473 13.0141 199.544 12.4536L203.406 12.4391C203.423 12.0848 203.434 9.76885 203.434 9.76885C202.697 9.76924 200.368 9.82019 199.675 9.82019C199.614 9.82019 199.565 9.8198 199.532 9.81902L199.54 8.90776L201.095 8.90071C201.098 8.40216 201.11 7.51403 201.139 6.1446L199.53 6.15792L199.532 4.60271L197.002 4.63681L197.012 6.19986C196.555 6.20927 195.973 6.23435 195.515 6.23944C195.51 7.1119 195.502 7.94634 195.524 8.81252C195.579 8.81252 195.633 8.81252 195.688 8.81252C196.122 8.81252 196.567 8.8133 196.998 8.81683L197 9.83744C195.778 9.85312 194.556 9.89505 193.334 9.91583C193.326 10.7906 193.321 11.5859 193.331 12.4536L196.992 12.4568C197.057 13.3186 197.073 16.1727 197.057 17.124C196.685 16.9401 195.594 16.2546 195.332 16.1433L195.335 19.048L197.059 20.1732V22.4547ZM207.942 2.17699C207.652 2.37335 207.457 2.52542 207.197 2.73746C206.643 3.18937 206.043 3.91485 205.666 4.55331C205.591 4.6803 205.507 4.86961 205.409 4.9817C205.11 4.65365 204.851 3.7228 203.357 2.54345C203.052 2.30163 202.814 2.14877 202.448 1.93908C202.325 1.86814 202.197 1.80191 202.067 1.73959C202.024 1.71882 201.978 1.70079 201.934 1.6808C201.846 1.64121 201.758 1.60123 201.667 1.56518C201.613 1.54362 201.557 1.5252 201.502 1.50521C201.419 1.47503 201.336 1.44367 201.252 1.41624C201.191 1.39664 201.129 1.38018 201.068 1.36215C200.986 1.33824 200.904 1.31316 200.821 1.2916C200.757 1.27514 200.691 1.26142 200.625 1.24653C200.543 1.22772 200.462 1.20812 200.378 1.19166C200.311 1.17833 200.242 1.16775 200.173 1.15638C200.091 1.14227 200.009 1.12777 199.927 1.11641C199.856 1.10622 199.785 1.09916 199.714 1.09093C199.632 1.08152 199.55 1.07133 199.467 1.06428C199.395 1.05801 199.322 1.05409 199.25 1.04978C199.189 1.04586 199.129 1.03998 199.068 1.03723C198.934 1.0341 198.799 1.03096 198.664 1.03096C198.26 1.03096 197.855 1.05683 197.454 1.10857L197.358 1.12228C197.221 1.14149 197.085 1.16265 196.95 1.18774C196.892 1.19832 196.835 1.21047 196.777 1.22223C196.659 1.24614 196.542 1.27201 196.427 1.30062C196.367 1.31512 196.307 1.33001 196.248 1.34569C196.13 1.37744 196.014 1.41154 195.898 1.44799C195.847 1.46406 195.795 1.47895 195.744 1.4958C195.581 1.55067 195.42 1.60868 195.263 1.67257C194.472 1.99474 193.991 2.33886 193.381 2.77235C193.1 2.97145 192.823 3.24189 192.591 3.46921C192.396 3.66126 192.213 3.86193 192.04 4.06849C191.983 4.13668 191.933 4.20841 191.878 4.27778C191.767 4.41966 191.657 4.56233 191.556 4.7097C191.497 4.79514 191.443 4.88293 191.388 4.97034C191.301 5.10791 191.216 5.24665 191.137 5.38853C191.084 5.48299 191.034 5.57823 190.986 5.67426C190.913 5.81575 190.845 5.95841 190.781 6.10343C190.737 6.20181 190.694 6.30057 190.654 6.40052C190.594 6.54946 190.539 6.70035 190.487 6.85282C190.453 6.95119 190.418 7.04879 190.387 7.14873C190.337 7.31374 190.293 7.48109 190.251 7.64924C190.229 7.73781 190.203 7.82561 190.183 7.91536C190.133 8.14347 190.091 8.37393 190.056 8.60557L190.04 8.69728C189.684 11.2116 190.217 13.9057 191.445 16.1386C192.148 17.4187 192.586 18.0262 193.329 18.9425C193.42 19.055 193.505 19.1593 193.593 19.2667C193.622 19.3016 193.653 19.3392 193.683 19.3749C193.763 19.4732 193.847 19.5744 193.935 19.6821C194.949 20.9336 196.174 22.1592 197.454 23.3001V22.8176L197.449 19.9451C196.819 19.543 196.251 19.24 195.639 18.8438C195.601 17.8185 195.61 17.5598 195.623 16.7916C196.097 17.0236 197.057 17.6111 197.448 17.8032L197.417 12.0785C196.285 12.0785 194.856 12.0817 193.724 12.0817C193.688 11.3719 193.667 10.9125 193.709 10.2443L197.407 10.2137L197.4 8.4676L195.913 8.45467C195.88 7.85187 195.881 7.37762 195.908 6.62628L197.377 6.60237L197.406 5.02717L199.081 5.03853L199.101 6.59179L200.645 6.6059L200.66 8.46643L199.071 8.47231L199.071 10.2129L202.936 10.2168L202.962 12.0828L199.071 12.0852L199.083 18.8802C199.191 18.9555 200.925 20.0737 200.956 20.1572L200.95 22.0232C200.568 21.8472 199.415 21.1068 199.074 20.9955L199.068 24.1894V24.675C199.554 25.0717 200.038 25.4526 200.513 25.8156C200.62 25.8967 200.736 25.9841 200.857 26.0743L200.937 26.1338C201.059 26.2236 201.184 26.3161 201.316 26.4121C201.487 26.536 201.612 26.6253 201.739 26.7166L201.831 26.7821C201.971 26.882 202.113 26.9828 202.258 27.0839L202.341 27.1423C202.468 27.2317 202.597 27.321 202.726 27.4104L202.816 27.4723C202.96 27.5719 203.104 27.6698 203.248 27.7674C203.285 27.7925 203.321 27.8168 203.358 27.8419C203.488 27.9301 203.617 28.0163 203.744 28.101C203.945 28.2342 204.081 28.324 204.216 28.4114C204.616 28.6701 204.939 28.8727 205.213 29.035C205.316 29.0961 205.369 29.1279 205.422 29.1279C205.519 29.1279 205.615 29.0193 206.02 28.7822C207.139 28.1257 208.874 26.8985 209.939 26.1213C210.453 25.7458 210.953 25.3703 211.44 24.976C212.672 23.979 213.685 23.1351 214.786 22.0996L215.647 21.2601C215.893 20.9814 216.075 20.8066 216.285 20.5836L217.368 19.3549C218.86 17.5962 220.155 15.3116 220.699 12.9216C221.03 11.462 221.086 10.1302 220.877 8.70198C220.841 8.4531 220.803 8.23244 220.758 8.00825C220.641 7.4227 220.311 6.48635 220.064 5.98506C219.908 5.66916 219.769 5.39481 219.602 5.12006C219.515 4.97778 219.434 4.85119 219.333 4.70852C218.463 3.47823 217.51 2.61831 216.183 1.91518C215.056 1.31786 213.64 1 212.22 1C210.676 1 209.128 1.37548 207.942 2.17699Z" fill="#E20613"/>
</svg>
