<svg width="221" height="29" viewBox="0 0 221 29" fill="none" xmlns="http://www.w3.org/2000/svg">
<path fill-rule="evenodd" clip-rule="evenodd" d="M0 3C0 1.34315 1.34315 0 3 0H197C197.154 0 197.306 0.0117263 197.455 0.0344464C197.137 0.0431371 196.82 0.0677594 196.506 0.108313L196.411 0.121999C196.274 0.141159 196.138 0.162274 196.003 0.1873C195.96 0.195244 195.917 0.204074 195.873 0.212957L195.831 0.22171C195.713 0.245562 195.597 0.27137 195.481 0.299914C195.422 0.314382 195.362 0.329241 195.303 0.344882C195.185 0.376555 195.069 0.410574 194.954 0.446939C194.934 0.453122 194.914 0.45913 194.895 0.465144C194.863 0.474722 194.831 0.484314 194.8 0.494643C194.637 0.549387 194.477 0.607258 194.32 0.670995C193.539 0.988821 193.062 1.32806 192.463 1.75373L192.442 1.7682C192.162 1.96684 191.886 2.23665 191.654 2.46344C191.459 2.65504 191.277 2.85525 191.104 3.06132C191.069 3.10355 191.036 3.14713 191.004 3.19067C190.984 3.21728 190.964 3.24387 190.943 3.27012C190.832 3.41167 190.722 3.554 190.621 3.70103C190.576 3.76692 190.534 3.83421 190.491 3.90165C190.479 3.92145 190.466 3.94126 190.454 3.96106C190.367 4.09831 190.282 4.23673 190.203 4.37828C190.151 4.47252 190.101 4.56753 190.052 4.66333C189.98 4.80449 189.912 4.94683 189.848 5.0915C189.804 5.18965 189.762 5.28819 189.721 5.3879C189.661 5.53649 189.607 5.68703 189.555 5.83914C189.549 5.85608 189.543 5.873 189.537 5.88991C189.509 5.97097 189.481 6.05186 189.455 6.13436C189.405 6.29898 189.361 6.46595 189.319 6.6337C189.312 6.66401 189.304 6.69423 189.296 6.72446C189.28 6.78238 189.265 6.84037 189.252 6.8992C189.202 7.12678 189.16 7.3567 189.125 7.58779L189.108 7.67929C188.753 10.1877 189.286 12.8756 190.51 15.1032C191.213 16.3803 191.649 16.9864 192.391 17.9006C192.481 18.0128 192.566 18.1169 192.654 18.224L192.678 18.2524C192.699 18.2787 192.721 18.3058 192.743 18.3319L192.809 18.4122C192.869 18.4851 192.931 18.56 192.995 18.6385C194.007 19.887 195.229 21.1097 196.506 22.248L198.117 23.6197C198.601 24.0154 199.085 24.3955 199.559 24.7576C199.665 24.8385 199.781 24.9257 199.902 25.0157L199.982 25.0751C200.103 25.1646 200.228 25.2569 200.36 25.3527C200.53 25.4763 200.655 25.5654 200.782 25.6565L200.874 25.7218C201.013 25.8216 201.155 25.9221 201.299 26.0229L201.382 26.0812C201.51 26.1704 201.638 26.2595 201.767 26.3487L201.856 26.4104C202 26.5098 202.144 26.6075 202.287 26.7049C202.302 26.7152 202.317 26.7253 202.333 26.7355C202.354 26.75 202.376 26.7644 202.397 26.7792C202.527 26.8672 202.655 26.9532 202.783 27.0376C202.982 27.1706 203.119 27.2601 203.253 27.3473C203.652 27.6054 203.974 27.8076 204.248 27.9694L204.25 27.9707C204.352 28.0309 204.404 28.0621 204.456 28.0621C204.459 28.0621 204.462 28.062 204.465 28.0619C204.252 28.1096 204.029 28.1349 203.8 28.1349H3C1.34315 28.1349 0 26.7918 0 25.1349V3ZM204.513 28.0506C205.151 27.8961 205.7 27.539 206.101 27.0599C205.722 27.3085 205.364 27.5349 205.053 27.7172C204.887 27.8142 204.774 27.8897 204.69 27.9449C204.609 27.9992 204.556 28.034 204.513 28.0506Z" fill="#E20613"/>
<path fill-rule="evenodd" clip-rule="evenodd" d="M196.131 21.4601C195.279 20.6757 194.457 19.8441 193.65 18.9111L192.937 18.0216C191.389 16.0622 189.942 13.1979 189.74 10.4403C189.671 9.49318 189.716 8.51701 189.891 7.61493C189.915 7.49026 189.942 7.36756 189.972 7.24603C189.985 7.19036 189.997 7.13429 190.012 7.0798C190.057 6.90691 190.107 6.73677 190.163 6.5725C190.358 6.00679 190.566 5.53792 190.832 5.07806C191.13 4.56331 191.353 4.25125 191.704 3.80864C191.785 3.7075 191.869 3.65496 191.95 3.55735C192.5 2.89167 193.311 2.35026 194.047 1.95235C194.202 1.86845 194.369 1.79318 194.542 1.72222C194.588 1.7034 194.636 1.68498 194.683 1.66655C194.833 1.6097 194.987 1.55639 195.145 1.50856L195.234 1.48033C195.42 1.42702 195.611 1.38115 195.805 1.34077C195.854 1.33018 195.905 1.32117 195.955 1.31176C196.113 1.28157 196.273 1.2557 196.433 1.23453C196.811 1.18395 197.19 1.15494 197.557 1.15494C197.776 1.15494 197.988 1.16474 198.195 1.18003C198.278 1.18591 198.358 1.1965 198.439 1.20512C198.566 1.21845 198.694 1.23217 198.817 1.25138C198.902 1.26432 198.983 1.28079 199.066 1.29686C199.18 1.31842 199.294 1.34155 199.404 1.36821C199.485 1.3882 199.565 1.41016 199.645 1.4329C199.75 1.46308 199.855 1.49523 199.957 1.53012C200.034 1.556 200.109 1.58305 200.184 1.61167C200.285 1.65048 200.383 1.69242 200.481 1.73555C200.551 1.76691 200.621 1.79827 200.69 1.8316C200.788 1.88021 200.884 1.93235 200.979 1.98528C201.04 2.02017 201.103 2.05349 201.164 2.09034C201.266 2.15268 201.365 2.21972 201.463 2.28715C201.512 2.32047 201.563 2.35183 201.61 2.38672C201.754 2.49179 201.894 2.60156 202.03 2.71839C202.174 2.84384 202.272 2.95008 202.412 3.07906C202.552 3.20686 202.671 3.33075 202.79 3.48286C203.305 4.14619 203.591 4.54724 203.999 5.34935L204.401 6.13029C204.459 6.25103 204.478 6.31298 204.567 6.38903C204.693 5.977 205.301 4.78756 205.568 4.37239C206.956 2.21383 208.746 1.18748 211.479 1.18748C213.06 1.18748 214.714 1.68811 215.93 2.63135L216.736 3.30958L217.445 4.12933C217.847 4.61702 218.297 5.47362 218.548 6.07697C218.607 6.21967 218.661 6.36512 218.711 6.51213C218.727 6.56035 218.742 6.60975 218.757 6.65836C218.789 6.75833 218.82 6.85869 218.848 6.96023C218.864 7.01904 218.878 7.07823 218.893 7.13782C218.917 7.23113 218.939 7.32522 218.959 7.42009C218.972 7.48281 218.986 7.54554 218.998 7.60866C219.406 9.75428 219.03 12.1606 218.203 14.062C217.913 14.7304 217.679 15.2283 217.335 15.8171C217.169 16.1025 217.022 16.3433 216.841 16.6091L216.031 17.7632C215.927 17.8965 215.842 17.9882 215.748 18.1219C215.573 18.3693 215.35 18.6331 215.164 18.8558C214.836 19.2486 213.931 20.2585 213.614 20.5392L212.634 21.5072C211.957 22.2552 209.2 24.4996 208.416 25.0673C207.66 25.6145 206.943 26.1661 206.152 26.6805L204.602 27.7033C204.579 27.7162 204.552 27.7221 204.522 27.7221C204.327 27.7221 204.014 27.4697 203.787 27.3258C203.622 27.2211 203.466 27.1196 203.314 27.0196C203.106 26.8824 202.908 26.7491 202.716 26.6174L202.644 26.5684C202.453 26.4359 202.266 26.3049 202.08 26.1732C202.04 26.1454 202.001 26.1171 201.961 26.0893C201.772 25.9544 201.582 25.8188 201.386 25.6792C201.18 25.5322 200.97 25.3825 200.747 25.2256C200.229 24.8422 199.746 24.4537 199.271 24.0926C199.025 23.9013 198.788 23.7108 198.549 23.5195L198.556 20.7C198.842 20.7788 200.209 21.6377 200.443 21.7326L200.433 18.9276C200.12 18.7084 199.774 18.4951 199.479 18.3156C199.158 18.1204 198.889 17.9181 198.554 17.7173C198.533 17.301 198.545 12.0171 198.617 11.4565L202.48 11.442C202.497 11.0876 202.507 8.77105 202.507 8.77105C201.771 8.77144 199.441 8.82241 198.747 8.82241C198.686 8.82241 198.637 8.82201 198.604 8.82123L198.613 7.90974L200.168 7.90269C200.171 7.40402 200.183 6.51566 200.212 5.14588L198.602 5.15921L198.604 3.60361L196.074 3.63771L196.084 5.20116C195.627 5.21057 195.045 5.23566 194.586 5.24075C194.581 6.11343 194.573 6.94808 194.595 7.81448C194.65 7.81448 194.704 7.81448 194.759 7.81448C195.193 7.81448 195.639 7.81526 196.069 7.81879L196.071 8.83966C194.849 8.85534 193.627 8.89729 192.404 8.91806C192.397 9.79309 192.392 10.5885 192.401 11.4565L196.064 11.4596C196.129 12.3217 196.144 15.1765 196.129 16.128C195.757 15.9442 194.665 15.2585 194.403 15.1471L194.406 18.0525L196.131 19.1781V21.4601ZM207.018 1.17729C206.727 1.3737 206.532 1.52581 206.272 1.7379C205.718 2.18992 205.118 2.91558 204.741 3.55421C204.666 3.68123 204.582 3.87058 204.483 3.98271C204.185 3.65457 203.926 2.72348 202.431 1.54384C202.125 1.30196 201.887 1.14906 201.522 0.939321C201.398 0.868363 201.271 0.802108 201.14 0.739774C201.097 0.718996 201.051 0.700963 201.007 0.680969C200.919 0.641373 200.831 0.601385 200.74 0.565318C200.687 0.543756 200.63 0.52533 200.575 0.505336C200.492 0.475149 200.409 0.443786 200.325 0.416344C200.264 0.396742 200.202 0.380276 200.141 0.362242C200.059 0.338328 199.977 0.313238 199.893 0.291676C199.829 0.27521 199.763 0.261489 199.698 0.246591C199.616 0.227774 199.534 0.208172 199.451 0.191706C199.383 0.178377 199.315 0.167792 199.246 0.156423C199.164 0.14231 199.082 0.127804 198.999 0.116435C198.929 0.106242 198.858 0.0991854 198.787 0.0909526C198.704 0.0815438 198.622 0.0713508 198.54 0.0642941C198.467 0.0580215 198.395 0.0541011 198.322 0.0497887C198.262 0.0458684 198.201 0.0399878 198.14 0.0372435C198.006 0.0341072 197.871 0.0309709 197.736 0.0309709C197.332 0.0309709 196.926 0.0568454 196.525 0.108594L196.43 0.122316C196.293 0.141525 196.156 0.162695 196.021 0.187786C195.963 0.198371 195.906 0.210524 195.848 0.222285C195.73 0.246199 195.614 0.272074 195.498 0.300693C195.438 0.315198 195.379 0.330095 195.319 0.345777C195.201 0.377532 195.085 0.411639 194.969 0.448099C194.918 0.464172 194.866 0.47907 194.815 0.495927C194.652 0.550812 194.491 0.608834 194.334 0.672736C193.542 0.994991 193.061 1.3392 192.451 1.77279C192.17 1.97195 191.893 2.24245 191.661 2.46983C191.466 2.66193 191.283 2.86266 191.11 3.06926C191.053 3.13747 191.002 3.20922 190.948 3.27861C190.836 3.42053 190.726 3.56323 190.625 3.71063C190.567 3.7961 190.513 3.88391 190.457 3.97134C190.37 4.10894 190.285 4.24772 190.206 4.38964C190.153 4.48412 190.104 4.57939 190.055 4.67544C189.983 4.81696 189.914 4.95966 189.85 5.10472C189.806 5.20312 189.764 5.30191 189.723 5.40188C189.663 5.55086 189.608 5.70179 189.556 5.85429C189.522 5.95269 189.487 6.05031 189.456 6.15028C189.406 6.31533 189.362 6.48273 189.32 6.65091C189.298 6.73951 189.272 6.82733 189.252 6.91711C189.202 7.14527 189.16 7.37579 189.125 7.60748L189.108 7.69922C188.752 10.2141 189.286 12.909 190.514 15.1424C191.218 16.4228 191.656 17.0305 192.399 17.9471C192.49 18.0596 192.575 18.1639 192.664 18.2713C192.692 18.3062 192.723 18.3438 192.753 18.3795C192.834 18.4779 192.917 18.579 193.005 18.6868C194.02 19.9386 195.245 21.1645 196.525 22.3057V21.8231L196.521 18.9499C195.89 18.5477 195.322 18.2446 194.71 17.8483C194.671 16.8227 194.68 16.564 194.694 15.7956C195.168 16.0277 196.128 16.6153 196.52 16.8074L196.488 11.0813C195.356 11.0813 193.927 11.0845 192.794 11.0845C192.758 10.3745 192.738 9.91501 192.779 9.24659L196.479 9.21601L196.471 7.46949L194.984 7.45655C194.951 6.8536 194.952 6.37923 194.979 5.6277L196.449 5.60378L196.477 4.02818L198.153 4.03955L198.173 5.5932L199.717 5.60731L199.733 7.46831L198.143 7.47419L198.143 9.21523L202.01 9.21915L202.036 11.0856L198.143 11.088L198.155 17.8847C198.263 17.96 199.998 19.0785 200.029 19.162L200.023 21.0285C199.641 20.8525 198.487 20.1119 198.146 20.0006L198.14 23.1953V23.681C198.626 24.0778 199.111 24.4588 199.586 24.8218C199.693 24.903 199.809 24.9904 199.93 25.0806L200.01 25.1402C200.131 25.2299 200.257 25.3225 200.389 25.4185C200.56 25.5424 200.685 25.6318 200.812 25.7231L200.904 25.7886C201.044 25.8886 201.186 25.9893 201.331 26.0905L201.414 26.1489C201.542 26.2383 201.671 26.3277 201.8 26.417L201.89 26.479C202.034 26.5786 202.178 26.6766 202.322 26.7742C202.358 26.7993 202.395 26.8236 202.432 26.8487C202.562 26.9369 202.691 27.0231 202.818 27.1078C203.019 27.2411 203.156 27.3309 203.29 27.4183C203.69 27.677 204.013 27.8797 204.287 28.042C204.391 28.1032 204.444 28.1349 204.496 28.1349C204.594 28.1349 204.69 28.0264 205.094 27.7892C206.214 27.1325 207.949 25.905 209.015 25.1276C209.529 24.7521 210.03 24.3765 210.517 23.9821C211.749 22.9848 212.763 22.1407 213.864 21.1049L214.726 20.2652C214.972 19.9865 215.154 19.8116 215.364 19.5885L216.446 18.3595C217.94 16.6004 219.235 14.3152 219.779 11.9246C220.111 10.4647 220.166 9.13251 219.957 7.70392C219.921 7.45498 219.883 7.23426 219.838 7.01002C219.721 6.42431 219.391 5.48774 219.144 4.98632C218.988 4.67034 218.849 4.39591 218.681 4.1211C218.595 3.97879 218.513 3.85216 218.412 3.70946C217.542 2.47885 216.588 1.61872 215.261 0.915407C214.134 0.317942 212.717 0 211.297 0C209.752 0 208.204 0.375572 207.018 1.17729Z" fill="#E20613"/>
</svg>
